<?xml version="1.0" encoding="UTF-8"?>
<svg id="Layer_1" data-name="Layer 1" xmlns="http://www.w3.org/2000/svg" viewBox="0 0 1920 1080">
  <defs>
    <style>
      .cls-1 {
        fill: none;
        stroke: #000;
        stroke-miterlimit: 10;
        stroke-width: 3px;
      }

      .cls-2 {
        fill: #f75411;
      }

      .cls-3 {
        fill: #ffba02;
      }

      .cls-4 {
        fill: #4186f3;
      }

      .cls-5 {
        fill: #34a952;
      }

      .cls-6 {
        fill: #06a1f2;
      }

      .cls-7 {
        font-family: Silom, Silom;
        font-size: 175.82px;
      }
    </style>
  </defs>
  <g>
    <polygon class="cls-4" points="689.9 374.82 689.9 674.2 679.7 680.1 681.05 677.75 592.79 626.79 592.77 626.79 565.25 610.89 561.28 608.6 561.28 506.3 535.64 491.49 504.17 473.33 456.7 445.92 451.02 442.63 448.51 441.19 441.53 437.16 441.53 343.95 445.98 336.23 367.06 290.68 367.04 290.66 332.82 270.9 244.18 322.08 244.16 322.11 213.84 339.6 212.18 338.65 213.11 338.1 213.11 237.79 330.64 169.93 335.01 169.93 419.68 218.81 689.9 374.82"/>
    <path class="cls-1" d="m332.53,408.53l.49.29v-.58l-.49.29Zm.16,100.37l-.02,2.97,2.55-1.49-2.53-1.49Z"/>
    <polygon class="cls-5" points="449.93 577 335.15 644.77 311.66 631.2 260.79 601.84 219.59 578.04 332.66 511.87 335.21 510.38 449.93 577"/>
    <polygon class="cls-6" points="333.02 408.82 332.68 508.9 332.66 511.87 219.59 578.04 217.55 576.87 217.55 483.66 222 475.94 218.9 474.15 332.53 408.53 333.02 408.82"/>
    <polygon class="cls-5" points="451.02 442.63 335.21 510.38 332.68 508.9 333.02 408.82 333.02 408.24 441.53 345.57 441.53 437.16 448.51 441.19 451.02 442.63"/>
    <polygon class="cls-5" points="332.53 408.53 218.9 474.15 99.83 405.42 213.84 339.6 332.53 408.53"/>
    <polygon class="cls-6" points="445.98 336.23 441.53 343.95 441.53 345.57 333.02 408.24 332.53 408.53 213.84 339.6 244.16 322.11 244.18 322.08 332.82 270.9 367.04 290.66 367.06 290.68 445.98 336.23"/>
    <polygon class="cls-6" points="561.28 506.3 561.28 511.25 450.53 576.65 449.93 577 335.21 510.38 451.02 442.63 456.7 445.92 504.17 473.33 535.64 491.49 561.28 506.3"/>
    <polygon class="cls-5" points="565.25 610.89 450.2 676.71 450.53 577.33 450.53 576.65 561.28 511.25 561.28 608.6 565.25 610.89"/>
    <polygon class="cls-5" points="570.11 748.36 504.86 786.01 454.83 814.91 453.75 815.53 437.91 806.39 377.53 771.53 337.3 748.31 337.3 741.28 448.45 677.7 450.18 678.7 450.18 678.72 570.11 748.36"/>
    <polygon class="cls-6" points="681.05 677.75 679.7 680.1 626.1 711.04 572.37 742.06 572.37 747.05 570.11 748.36 450.18 678.72 450.18 678.7 450.2 676.71 565.25 610.89 592.77 626.79 592.79 626.79 681.05 677.75"/>
    <polygon class="cls-2" points="572.37 747.45 572.37 837.6 454.83 905.48 454.83 819.12 457.07 815.24 454.83 813.96 454.83 812.69 504.86 783.8 570.11 746.14 572.37 747.45"/>
    <polygon class="cls-3" points="455.94 816.17 455.94 907.7 451.82 910.07 419.06 891.66 417.2 888.45 416.25 890.09 365.99 861.86 322.53 837.44 267.29 806.39 260.01 802.31 257.68 801 188.34 762.04 145.47 737.96 101.47 713.23 98.9 711.79 98.9 406.6 100.94 405.42 220.01 474.15 223.11 475.94 218.65 483.66 218.65 574.54 216.64 575.69 218.65 576.87 220.69 578.04 261.9 601.84 312.77 631.2 336.26 644.77 338.41 646.01 338.41 748.31 378.63 771.53 439.02 806.39 454.85 815.53 455.94 816.17"/>
    <line class="cls-1" x1="212.18" y1="338.65" x2="212.16" y2="338.65"/>
    <polygon class="cls-6" points="450.53 577.33 450.2 676.71 448.45 677.7 337.3 741.28 337.3 646.01 335.15 644.77 449.93 577 450.53 577.33"/>
  </g>
  <text class="cls-7" transform="translate(810 509.25)"><tspan x="0" y="0">OZODBEK </tspan><tspan x="0" y="210.98">ABDULLAYE</tspan></text>
</svg>